<svg width="24" height="24" viewBox="0 0 24 24" fill="none" xmlns="http://www.w3.org/2000/svg">
<path d="M14.75 11.5C14.875 11.5 15 11.625 15 11.75V12.25C15 12.4062 14.875 12.5 14.75 12.5H11.25C11.0938 12.5 11 12.4062 11 12.25V11.75C11 11.625 11.0938 11.5 11.25 11.5H14.75ZM14.75 14.5C14.875 14.5 15 14.625 15 14.75V15.25C15 15.4062 14.875 15.5 14.75 15.5H11.25C11.0938 15.5 11 15.4062 11 15.25V14.75C11 14.625 11.0938 14.5 11.25 14.5H14.75ZM9.5 11.25C9.90625 11.25 10.25 11.5938 10.25 12C10.25 12.4375 9.90625 12.75 9.5 12.75C9.0625 12.75 8.75 12.4375 8.75 12C8.75 11.5938 9.0625 11.25 9.5 11.25ZM9.5 14.25C9.90625 14.25 10.25 14.5938 10.25 15C10.25 15.4375 9.90625 15.75 9.5 15.75C9.0625 15.75 8.75 15.4375 8.75 15C8.75 14.5938 9.0625 14.25 9.5 14.25ZM16.5 6C17.3125 6 18 6.6875 18 7.5V18.5C18 19.3438 17.3125 20 16.5 20H7.5C6.65625 20 6 19.3438 6 18.5V7.5C6 6.6875 6.65625 6 7.5 6H10C10 4.90625 10.875 4 12 4C13.0938 4 14 4.90625 14 6H16.5ZM12 5.5C11.7188 5.5 11.5 5.75 11.5 6C11.5 6.28125 11.7188 6.5 12 6.5C12.25 6.5 12.5 6.28125 12.5 6C12.5 5.75 12.25 5.5 12 5.5ZM16.5 18.25V7.75C16.5 7.625 16.375 7.5 16.25 7.5H15V8.5C15 8.78125 14.75 9 14.5 9H9.5C9.21875 9 9 8.78125 9 8.5V7.5H7.75C7.59375 7.5 7.5 7.625 7.5 7.75V18.25C7.5 18.4062 7.59375 18.5 7.75 18.5H16.25C16.375 18.5 16.5 18.4062 16.5 18.25Z" fill="#333333"/>
</svg>
