<svg width="24" height="24" viewBox="0 0 24 24" fill="none" xmlns="http://www.w3.org/2000/svg">
<path d="M9 8.75V7.75C9 7.625 9.09375 7.5 9.25 7.5H15.75C15.875 7.5 16 7.625 16 7.75V8.75C16 8.90625 15.875 9 15.75 9H9.25C9.09375 9 9 8.90625 9 8.75ZM9.25 11.5C9.09375 11.5 9 11.4062 9 11.25V10.25C9 10.125 9.09375 10 9.25 10H15.75C15.875 10 16 10.125 16 10.25V11.25C16 11.4062 15.875 11.5 15.75 11.5H9.25ZM18.5938 16.5C18.4375 16.9062 18.4375 18.125 18.5938 18.5312C18.8125 18.5625 19 18.7812 19 19V19.5C19 19.7812 18.75 20 18.5 20H7.5C6.09375 20 5 18.9062 5 17.5V6.5C5 5.125 6.09375 4 7.5 4H18.5C18.75 4 19 4.25 19 4.5V16C19 16.25 18.8125 16.4688 18.5938 16.5ZM17.3125 16.5H7.5C6.9375 16.5 6.5 16.9688 6.5 17.5C6.5 18.0625 6.9375 18.5 7.5 18.5H17.3125C17.2188 17.9688 17.2188 17.0625 17.3125 16.5ZM17.5 5.5H7.5C6.9375 5.5 6.5 5.96875 6.5 6.5V15.2188C6.78125 15.0938 7.125 15 7.5 15H17.5V5.5Z" fill="#999999"/>
</svg>
