<svg width="24" height="24" viewBox="0 0 24 24" fill="none" xmlns="http://www.w3.org/2000/svg">
<path d="M15 11.75V12.625C15 12.8438 14.8125 13 14.625 13H9.375C9.15625 13 9 12.8438 9 12.625V11.75C9 11.5625 9.15625 11.375 9.375 11.375H14.625C14.8125 11.375 15 11.5625 15 11.75ZM14.625 14C14.8125 14 15 14.1875 15 14.375V15.25C15 15.4688 14.8125 15.625 14.625 15.625H9.375C9.15625 15.625 9 15.4688 9 15.25V14.375C9 14.1875 9.15625 14 9.375 14H14.625ZM18 8.125V18.5C18 19.3438 17.3125 20 16.5 20H7.5C6.65625 20 6 19.3438 6 18.5V5.5C6 4.6875 6.65625 4 7.5 4H13.875C14.25 4 14.6562 4.1875 14.9375 4.46875L17.5312 7.0625C17.8125 7.34375 18 7.75 18 8.125ZM14 5.625V8H16.375L14 5.625ZM16.5 18.5V9.5H13.25C12.8125 9.5 12.5 9.1875 12.5 8.75V5.5H7.5V18.5H16.5Z" fill="white"/>
</svg>
