<svg width="25" height="24" viewBox="0 0 25 24" fill="none" xmlns="http://www.w3.org/2000/svg">
<path d="M17.2 12C15.5437 12 14.2 10.6562 14.2 9C14.2 7.34375 15.5437 6 17.2 6C18.8562 6 20.2 7.34375 20.2 9C20.2 10.6562 18.8562 12 17.2 12ZM17.2 7.5C16.3562 7.5 15.7 8.1875 15.7 9C15.7 9.84375 16.3562 10.5 17.2 10.5C18.0125 10.5 18.7 9.84375 18.7 9C18.7 8.1875 18.0125 7.5 17.2 7.5ZM10.7 12.625C11.825 12.625 12.9187 13.1562 13.575 14.0938C13.95 14.6875 14.2 15.375 14.2 16.125V17.5C14.2 18.3438 13.5125 19 12.7 19H3.69995C2.8562 19 2.19995 18.3438 2.19995 17.5V16.125C2.19995 15.375 2.4187 14.6875 2.7937 14.0938C3.44995 13.1562 4.5437 12.625 5.6687 12.625C6.0437 12.625 6.4187 12.6875 6.7937 12.8125C7.2312 12.9375 7.69995 13 8.1687 13C8.6687 13 9.13745 12.9375 9.57495 12.8125C9.94995 12.6875 10.325 12.625 10.7 12.625ZM12.7 17.5V16.125C12.7 15.2188 12.1062 14.4375 11.325 14.1562C10.9812 14.0312 10.6375 14.0312 10.325 14.1562C9.6062 14.375 8.9187 14.5 8.19995 14.5C7.4812 14.5 6.76245 14.375 6.07495 14.1562C5.7312 14.0312 5.38745 14.0312 5.07495 14.1562C4.26245 14.4375 3.69995 15.2188 3.69995 16.125V17.5H12.7ZM8.19995 12C6.26245 12 4.69995 10.4375 4.69995 8.5C4.69995 6.59375 6.26245 5 8.19995 5C10.1062 5 11.7 6.59375 11.7 8.5C11.7 10.4375 10.1062 12 8.19995 12ZM8.19995 6.5C7.07495 6.5 6.19995 7.40625 6.19995 8.5C6.19995 9.625 7.07495 10.5 8.19995 10.5C9.2937 10.5 10.2 9.625 10.2 8.5C10.2 7.40625 9.2937 6.5 8.19995 6.5ZM21.6687 13.9375C22.0125 14.4062 22.2 14.9688 22.2 15.5938V16.75C22.2 17.4688 21.6375 18 20.95 18H15.1375C15.1687 17.8438 15.2 17.6875 15.2 17.5V16.5H20.7V15.5938C20.7 15.2812 20.6062 15 20.4187 14.75C20.2 14.4062 19.7625 14.1875 19.2625 14.1875C18.7312 14.1875 18.3562 14.5 17.2 14.5C16.0125 14.5 15.6375 14.1875 15.1062 14.1875C14.9812 14.1875 14.8875 14.2188 14.7937 14.2188C14.6687 14 14.5437 13.75 14.4187 13.5312C14.2625 13.3438 14.075 13.125 13.9187 12.9688C14.2937 12.7812 14.6687 12.6875 15.1062 12.6875C15.9812 12.6875 16.2 13 17.2 13C18.2 13 18.4187 12.6875 19.2625 12.6875C20.2312 12.6875 21.1375 13.125 21.6687 13.9375Z" fill="#10487A"/>
</svg>
