<svg width="24" height="24" viewBox="0 0 24 24" fill="none" xmlns="http://www.w3.org/2000/svg">
<path d="M17.5312 7.0625C17.8125 7.34375 18 7.75 18 8.125V18.5312C18 19.3438 17.3125 20 16.4688 20H7.46875C6.65625 20 6 19.3438 6 18.5312V5.53125C6 4.6875 6.65625 4.03125 7.46875 4H13.875C14.25 4 14.625 4.1875 14.9062 4.46875L17.5312 7.0625ZM13.9688 5.625V8.03125H16.375L13.9688 5.625ZM16.5 18.5312V9.53125H13.2188C12.8125 9.53125 12.4688 9.1875 12.4688 8.78125V5.53125H7.46875V18.5312H16.5ZM10 12.5C10 11.4062 10.875 10.5 12 10.5C13.0938 10.5 14 11.4062 14 12.5C14 13.625 13.0938 14.5 12 14.5C10.875 14.5 10 13.625 10 12.5ZM13.2188 15H13.375C14.5312 15 15.5 15.8125 15.5 16.8125V17C15.5 17.2812 15.25 17.5 15 17.5H9C8.71875 17.5 8.5 17.2812 8.5 17V16.8125C8.5 15.8125 9.4375 15 10.5938 15H10.75C11.125 15.1875 11.5312 15.25 12 15.25C12.4375 15.25 12.8438 15.1875 13.2188 15Z" fill="white"/>
</svg>
