<svg width="24" height="24" viewBox="0 0 24 24" fill="none" xmlns="http://www.w3.org/2000/svg">
<path d="M13.75 8.40625C14.3125 8.15625 14.9062 8.28125 15.3125 8.71875C15.7188 9.125 15.8438 9.71875 15.625 10.2188V10.25L13 15.9062C12.75 16.4375 12.25 16.75 11.7188 16.75C11.625 16.75 11.5 16.7188 11.4062 16.7188C10.75 16.5625 10.3125 16 10.3125 15.3438V13.6875H8.65625C7.96875 13.6875 7.40625 13.25 7.28125 12.5938C7.125 11.9375 7.4375 11.3125 8.0625 11L13.75 8.40625ZM11.8125 14.9375L14.1562 9.84375L9.03125 12.2188H11.8125V14.9375ZM12 4.25C16.25 4.25 19.75 7.75 19.75 12C19.75 16.2812 16.25 19.75 12 19.75C7.71875 19.75 4.25 16.2812 4.25 12C4.25 7.75 7.71875 4.25 12 4.25ZM12 18.25C15.4375 18.25 18.25 15.4688 18.25 12C18.25 8.5625 15.4375 5.75 12 5.75C8.53125 5.75 5.75 8.5625 5.75 12C5.75 15.4688 8.53125 18.25 12 18.25Z" fill="white"/>
</svg>
