<svg width="14" height="13" viewBox="0 0 14 13" fill="none" xmlns="http://www.w3.org/2000/svg">
<path d="M2.875 1.625V5H1.75V1.625C1.75 1.01562 2.24219 0.5 2.875 0.5H9.625C10.2344 0.5 10.75 1.01562 10.75 1.625V2.75H9.625V1.625H2.875ZM8.125 5.75C8.73438 5.75 9.25 6.26562 9.25 6.875V11.375C9.25 12.0078 8.73438 12.5 8.125 12.5H1.375C0.742188 12.5 0.25 12.0078 0.25 11.375V6.875C0.25 6.26562 0.742188 5.75 1.375 5.75H8.125ZM8.125 11.375V8.5625C7.77344 8.82031 6.25 9.94531 6.25 9.94531C5.89844 10.2031 5.33594 10.625 4.75 10.625C4.14062 10.625 3.57812 10.2031 3.25 9.94531C3.25 9.94531 1.70312 8.82031 1.375 8.5625V11.375H8.125ZM8.125 7.20312V6.875H1.375V7.13281C1.42188 7.17969 3.92969 9.03125 4 9.10156C4.21094 9.26562 4.51562 9.5 4.75 9.5C4.91406 9.5 5.17188 9.33594 5.35938 9.19531C5.5 9.125 8.05469 7.25 8.125 7.20312ZM12.625 3.5C13.2344 3.5 13.75 4.01562 13.75 4.625V9.125C13.75 9.75781 13.2344 10.25 12.625 10.25H10V9.125H12.625V4.625H5.875V5H4.75V4.625C4.75 4.01562 5.24219 3.5 5.875 3.5H12.625ZM10.375 5.375H11.875V6.875H10.375V5.375Z" fill="#333333"/>
</svg>
