<svg width="24" height="24" viewBox="0 0 24 24" fill="none" xmlns="http://www.w3.org/2000/svg">
<path d="M16.375 15C16.1875 15 16 14.8125 16 14.625V7.40625C16 7.21875 16.1875 7 16.375 7H17.0938C17.2812 7 17.5 7.21875 17.5 7.40625V14.625C17.5 14.8125 17.2812 15 17.0938 15H16.375ZM10.375 15C10.1875 15 10 14.8125 10 14.625V8.40625C10 8.21875 10.1875 8 10.375 8H11.0938C11.2812 8 11.5 8.21875 11.5 8.40625V14.625C11.5 14.8125 11.2812 15 11.0938 15H10.375ZM13.375 15C13.1875 15 13 14.8125 13 14.625V10.4062C13 10.2188 13.1875 10 13.375 10H14.0938C14.2812 10 14.5 10.2188 14.5 10.4062V14.625C14.5 14.8125 14.2812 15 14.0938 15H13.375ZM19.5 16.5C19.75 16.5 20 16.75 20 17V17.5C20 17.7812 19.75 18 19.5 18H5C4.4375 18 4 17.5625 4 17V6.5C4 6.25 4.21875 6 4.5 6H5C5.25 6 5.5 6.25 5.5 6.5V16.5H19.5ZM7.375 15C7.1875 15 7 14.8125 7 14.625V12.4062C7 12.2188 7.1875 12 7.375 12H8.09375C8.28125 12 8.5 12.2188 8.5 12.4062V14.625C8.5 14.8125 8.28125 15 8.09375 15H7.375Z" fill="white"/>
</svg>
