<svg width="24" height="24" viewBox="0 0 24 24" fill="none" xmlns="http://www.w3.org/2000/svg">
<path d="M16 11.5V12.5C16 12.7188 15.8125 12.875 15.625 12.875H12.875V15.625C12.875 15.8438 12.6875 16 12.5 16H11.5C11.2812 16 11.125 15.8438 11.125 15.625V12.875H8.375C8.15625 12.875 8 12.7188 8 12.5V11.5C8 11.3125 8.15625 11.125 8.375 11.125H11.125V8.375C11.125 8.1875 11.2812 8 11.5 8H12.5C12.6875 8 12.875 8.1875 12.875 8.375V11.125H15.625C15.8125 11.125 16 11.3125 16 11.5ZM19.75 12C19.75 16.2812 16.2812 19.75 12 19.75C7.71875 19.75 4.25 16.2812 4.25 12C4.25 7.71875 7.71875 4.25 12 4.25C16.2812 4.25 19.75 7.71875 19.75 12ZM18.25 12C18.25 8.5625 15.4375 5.75 12 5.75C8.53125 5.75 5.75 8.5625 5.75 12C5.75 15.4688 8.53125 18.25 12 18.25C15.4375 18.25 18.25 15.4688 18.25 12Z" fill="white"/>
</svg>
