<svg width="24" height="24" viewBox="0 0 24 24" fill="none" xmlns="http://www.w3.org/2000/svg">
<path d="M15.3125 16.0312C15.6562 15.9375 16 16.1875 16 16.5V19.5C16 19.8438 15.6562 20.0938 15.3125 20L13 19L10.6562 20C10.3125 20.0938 10 19.8438 10 19.5V16.5C10 16.1875 10.3125 15.9375 10.6562 16.0312L13 17L15.3125 16.0312ZM15.6562 9.96875C15.6875 10.1562 15.6562 10.0938 15.75 10.2188C15.8438 10.4062 16 10.6562 16 11C16 11.3438 15.8438 11.625 15.75 11.8125C15.6562 11.9375 15.6875 11.875 15.6562 12.0625C15.6562 12.25 15.625 12.5625 15.4375 12.8125C15.2188 13.0938 14.9688 13.2188 14.7812 13.3125C14.625 13.375 14.6875 13.3438 14.5938 13.4688C14.4375 13.625 14.25 13.8438 13.9062 13.9688C13.5625 14.0625 13.25 14 13.125 13.9688C12.9688 13.9375 13 13.9375 12.875 13.9688C12.6562 14 12.375 14.0625 12.0625 13.9688C11.7188 13.8438 11.5312 13.625 11.4062 13.4688C11.2812 13.3438 11.3438 13.375 11.1875 13.3125C11.0312 13.2188 10.75 13.0938 10.5625 12.8125C10.375 12.5625 10.3438 12.25 10.3125 12.0625C10.2812 11.875 10.3125 11.9375 10.25 11.8125C10.125 11.625 10 11.3438 10 11C10 10.6562 10.125 10.4062 10.25 10.2188C10.3125 10.0938 10.2812 10.125 10.3125 9.96875C10.3438 9.78125 10.375 9.46875 10.5625 9.21875C10.75 8.9375 11.0312 8.8125 11.1875 8.71875C11.3438 8.65625 11.3125 8.6875 11.4062 8.5625C11.5312 8.40625 11.7188 8.1875 12.0625 8.0625C12.375 7.96875 12.6875 8.03125 12.875 8.0625C13.0312 8.09375 12.9688 8.09375 13.125 8.0625C13.3125 8.03125 13.5938 7.96875 13.9375 8.0625C14.25 8.1875 14.4688 8.40625 14.5938 8.5625C14.6875 8.6875 14.6562 8.65625 14.7812 8.71875C14.9688 8.8125 15.2188 8.9375 15.4375 9.21875C15.625 9.46875 15.6562 9.78125 15.6562 9.96875ZM14.1562 11.9375C14.2188 11.5625 14.2188 11.4688 14.4688 11C14.1875 10.5625 14.2188 10.4375 14.1562 10.0938C13.6562 9.84375 13.5312 9.65625 13.4375 9.53125C13.0938 9.59375 12.875 9.59375 12.5312 9.53125C12.2812 9.875 11.9375 10.0312 11.8125 10.0938C11.75 10.4375 11.75 10.5625 11.5 11C11.75 11.4375 11.75 11.5312 11.8125 11.9375C11.8438 11.9688 12.25 12.125 12.5312 12.5C13.0312 12.4062 12.9375 12.4062 13.4375 12.5C13.625 12.2188 13.875 12.0625 14.1562 11.9375ZM19.625 9.6875C19.875 10.0938 20 10.5312 20 11.0312C20 11.5 19.875 11.9375 19.625 12.3438C19.6875 12.7812 19.625 13.25 19.4688 13.6875C19.2812 14.125 18.9688 14.5 18.625 14.7812C18.5 15.2188 18.2812 15.625 17.9375 15.9688C17.6562 16.25 17.3438 16.4375 17 16.5625V16.5C17 15.9688 16.6875 15.4688 16.2188 15.2188C17 15.0938 17.3125 14.4375 17.1562 13.8125C17.5625 13.75 17.9062 13.5 18.0625 13.125C18.2188 12.75 18.1562 12.3125 17.9375 12C18.2812 11.7812 18.5 11.4375 18.5 11C18.5 10.5938 18.2812 10.25 17.9375 10.0312C18.1562 9.71875 18.2188 9.28125 18.0625 8.90625C17.9062 8.53125 17.5625 8.25 17.1875 8.1875C17.25 7.8125 17.1562 7.40625 16.875 7.125C16.4688 6.6875 15.9062 6.8125 15.8125 6.8125C15.75 6.4375 15.4688 6.09375 15.0938 5.9375C14.6875 5.78125 14.2812 5.84375 13.9688 6.0625C13.75 5.71875 13.4062 5.5 13 5.5C12.5625 5.5 12.2188 5.71875 12 6.0625C11.6875 5.84375 11.2812 5.78125 10.875 5.9375C10.5 6.09375 10.25 6.4375 10.1875 6.8125C10.0625 6.8125 9.53125 6.6875 9.09375 7.125C8.8125 7.40625 8.71875 7.8125 8.8125 8.1875C8.40625 8.25 8.0625 8.53125 7.90625 8.90625C7.75 9.28125 7.8125 9.71875 8.03125 10.0312C7.6875 10.25 7.5 10.5938 7.5 11C7.5 11.4375 7.6875 11.7812 8.03125 12C7.8125 12.3125 7.75 12.75 7.90625 13.125C8.0625 13.5 8.40625 13.75 8.8125 13.8125C8.65625 14.4375 8.96875 15.0938 9.75 15.2188C9.65625 15.2812 9.53125 15.3438 9.4375 15.4375C9.15625 15.7188 9 16.0938 9 16.5V16.5625C8.625 16.4062 8.3125 16.2188 8.03125 15.9688C7.71875 15.625 7.46875 15.2188 7.375 14.7812C7 14.5 6.6875 14.125 6.53125 13.6875C6.34375 13.25 6.28125 12.7812 6.34375 12.3438C6.09375 11.9375 6 11.5 6 11C6 10.5312 6.09375 10.0938 6.34375 9.6875C6.28125 9.25 6.34375 8.78125 6.53125 8.34375C6.6875 7.90625 7 7.53125 7.375 7.25C7.46875 6.78125 7.71875 6.40625 8.03125 6.0625C8.375 5.71875 8.78125 5.5 9.21875 5.375C9.5 5.03125 9.875 4.71875 10.3125 4.53125C10.625 4.40625 10.9688 4.34375 11.3125 4.34375C11.4375 4.34375 11.5625 4.34375 11.6562 4.375C12.0625 4.125 12.5 4 13 4C13.4688 4 13.9062 4.125 14.3125 4.375C14.4062 4.34375 14.5312 4.34375 14.6562 4.34375C15 4.34375 15.3438 4.40625 15.6562 4.5625C16.0938 4.71875 16.4688 5.03125 16.75 5.375C17.2188 5.5 17.625 5.75 17.9375 6.0625C18.25 6.40625 18.5 6.8125 18.5938 7.25C18.9688 7.53125 19.2812 7.90625 19.4375 8.34375C19.625 8.78125 19.6875 9.25 19.625 9.6875Z" fill="white"/>
</svg>
