<svg width="24" height="24" viewBox="0 0 24 24" fill="none" xmlns="http://www.w3.org/2000/svg">
<path d="M20.8438 18.8125C20.9375 18.9062 21 19.0312 21 19.1562C21 19.3125 20.9375 19.4375 20.8438 19.5L20.5 19.875C20.4062 19.9688 20.2812 20.0312 20.125 20.0312C20 20.0312 19.875 19.9688 19.7812 19.875L17.2188 17.3125C16.5938 17.75 15.8125 18.0312 14.9688 18.0312C12.7812 18.0312 10.9688 16.2188 10.9688 14.0312C10.9688 11.8125 12.7812 10.0312 14.9688 10.0312C17.1875 10.0312 18.9688 11.8125 18.9688 14.0312C18.9688 14.8438 18.7188 15.625 18.2812 16.25L20.8438 18.8125ZM15 16.5C16.375 16.5 17.4688 15.4062 17.5 14C17.5 12.625 16.375 11.5 15 11.5C13.5938 11.5 12.5 12.625 12.5 14C12.5 15.4062 13.5938 16.5 15 16.5ZM4.5 18.5H12.8438C13.4688 18.8125 14.1562 19 14.9062 19C14.6875 19.5938 14.125 20 13.5 20H4.5C3.65625 20 3 19.3438 3 18.5V5.53125C3 4.6875 3.65625 4.03125 4.5 4H10.875C11.2812 4.03125 11.6562 4.1875 11.9375 4.46875L14.5312 7.0625C14.8125 7.34375 14.9688 7.71875 15 8.125V9.03125C14.2188 9.03125 13.5 9.21875 12.8438 9.53125H10.25C10.2188 9.53125 10.2188 9.53125 10.2188 9.53125C9.8125 9.53125 9.5 9.1875 9.5 8.78125V5.53125H4.5V18.5ZM11 5.625V8.03125H13.375L11 5.625Z" fill="#333333"/>
</svg>
