<svg width="24" height="24" viewBox="0 0 24 24" fill="none" xmlns="http://www.w3.org/2000/svg">
<path d="M14.7812 13.5C17.0938 13.5 19 15.4062 19 17.7188V18.5C19 19.3438 18.3125 20 17.5 20H6.5C5.65625 20 5 19.3438 5 18.5V17.7188C5 15.4062 6.875 13.5 9.1875 13.5C10.0938 13.5 10.5 14 12 14C13.4688 14 13.875 13.5 14.7812 13.5ZM17.5 18.5V17.7188C17.5 16.2188 16.2812 15 14.7812 15C14.3125 15 13.5938 15.5 12 15.5C10.375 15.5 9.65625 15 9.1875 15C7.6875 15 6.5 16.2188 6.5 17.7188V18.5H17.5ZM12 13C9.5 13 7.5 11 7.5 8.5C7.5 6.03125 9.5 4 12 4C14.4688 4 16.5 6.03125 16.5 8.5C16.5 11 14.4688 13 12 13ZM12 5.5C10.3438 5.5 9 6.875 9 8.5C9 10.1562 10.3438 11.5 12 11.5C13.625 11.5 15 10.1562 15 8.5C15 6.875 13.625 5.5 12 5.5Z" fill="#999999"/>
</svg>
